<?xml version="1.0" standalone="no"?>
<!DOCTYPE svg PUBLIC "-//W3C//DTD SVG 20010904//EN"
 "http://www.w3.org/TR/2001/REC-SVG-20010904/DTD/svg10.dtd">
<svg version="1.0" xmlns="http://www.w3.org/2000/svg"
 width="2520.000000pt" height="2520.000000pt" viewBox="0 0 2520.000000 2520.000000"
 preserveAspectRatio="xMidYMid meet">
<metadata>
Created by potrace 1.14, written by Peter Selinger 2001-2017
</metadata>
<g transform="translate(0.000000,2520.000000) scale(0.100000,-0.100000)"
fill="#000000" stroke="none">
<path d="M8406 16563 c-3 -3 -34 -7 -68 -8 -85 -4 -204 -14 -253 -21 -22 -3
-62 -7 -90 -10 -27 -2 -66 -6 -85 -9 -19 -3 -51 -7 -70 -9 -19 -2 -48 -6 -65
-10 -16 -3 -46 -8 -65 -10 -62 -8 -112 -17 -290 -53 -96 -19 -185 -36 -197
-37 -13 0 -23 -4 -23 -8 0 -5 -8 -8 -17 -8 -10 0 -63 -12 -118 -26 -55 -15
-109 -28 -120 -29 -11 -2 -21 -4 -22 -5 -2 -2 -7 -4 -13 -5 -5 -1 -12 -4 -15
-5 -3 -1 -8 -3 -12 -4 -5 -2 -28 -8 -53 -16 -25 -7 -50 -14 -57 -16 -7 -1 -34
-9 -60 -18 -26 -9 -52 -16 -58 -17 -5 -1 -32 -10 -60 -21 -27 -11 -50 -19 -50
-18 0 1 -13 -3 -28 -9 -15 -6 -40 -14 -55 -17 -15 -4 -32 -11 -38 -15 -6 -5
-19 -10 -30 -12 -10 -2 -36 -11 -58 -20 -21 -9 -41 -17 -45 -17 -7 0 -221 -87
-296 -120 -129 -57 -308 -139 -330 -152 -11 -6 -58 -31 -105 -56 -191 -99
-225 -117 -230 -123 -3 -3 -32 -20 -65 -38 -177 -98 -583 -363 -649 -423 -11
-10 -23 -18 -27 -18 -4 0 -47 -32 -95 -70 -49 -39 -105 -83 -124 -98 -63 -50
-235 -196 -252 -216 -10 -10 -18 -17 -18 -14 0 16 -486 -469 -2978 -2970
l-1113 -1117 89 -85 c74 -72 182 -171 276 -255 38 -34 107 -90 206 -170 52
-42 105 -85 117 -96 13 -10 23 -16 23 -11 0 4 5 -1 11 -10 5 -10 14 -18 19
-18 6 0 19 -8 29 -17 29 -27 44 -38 76 -59 17 -10 32 -21 35 -25 6 -8 286
-196 380 -255 54 -35 301 -178 406 -235 107 -59 370 -186 514 -249 116 -50
130 -56 205 -85 39 -15 81 -32 95 -37 14 -6 81 -30 150 -54 69 -25 132 -47
140 -51 8 -3 21 -8 27 -10 7 -1 19 -5 25 -6 7 -2 20 -7 28 -10 26 -10 149 -47
167 -50 10 -2 25 -7 33 -10 8 -3 29 -9 45 -13 17 -4 32 -8 35 -9 33 -10 98
-28 110 -30 8 -2 44 -11 80 -20 36 -9 76 -19 90 -21 14 -3 33 -7 42 -10 9 -3
25 -6 35 -8 10 -2 52 -11 93 -20 41 -8 91 -18 110 -21 19 -3 42 -8 50 -10 8
-2 35 -7 60 -10 25 -3 52 -8 60 -10 8 -3 35 -7 60 -10 25 -3 59 -8 75 -11 17
-4 44 -7 60 -9 17 -1 50 -5 75 -8 25 -4 66 -9 93 -12 26 -3 66 -7 90 -10 23
-2 73 -7 112 -10 38 -3 71 -8 74 -10 2 -3 10 0 18 6 7 6 13 8 13 3 0 -25 784
-25 1050 0 25 3 74 7 110 10 36 3 88 9 115 13 28 3 62 7 78 7 15 1 27 3 27 6
0 3 15 5 33 6 17 0 50 3 72 6 22 4 60 10 85 13 25 4 52 9 60 12 8 3 33 6 55 8
22 2 51 7 65 10 14 3 38 8 54 10 15 2 35 7 45 9 9 3 31 8 48 11 18 3 61 12 95
20 35 8 74 16 88 19 14 3 54 12 90 21 36 9 72 18 80 20 58 15 248 67 260 72 8
3 20 7 25 9 28 7 212 65 225 71 20 8 172 63 185 66 6 2 20 8 31 15 12 6 24 8
28 5 3 -3 6 -1 6 5 0 7 3 11 8 10 9 -4 104 32 117 43 5 5 15 9 23 9 7 0 34 10
60 21 97 45 137 62 142 63 22 4 332 159 468 233 74 40 138 73 143 73 5 0 9 4
9 9 0 5 12 14 28 20 15 6 55 29 90 50 188 119 180 116 202 96 11 -10 20 -15
20 -11 0 4 14 -4 31 -18 17 -14 37 -26 45 -26 8 0 14 -4 14 -8 0 -5 15 -16 33
-25 31 -16 42 -23 97 -58 14 -9 54 -32 90 -51 36 -20 85 -47 110 -60 115 -64
260 -137 260 -132 0 3 12 -3 28 -13 23 -16 74 -43 92 -48 7 -2 47 -20 110 -48
30 -13 60 -26 65 -28 8 -2 73 -30 160 -69 46 -21 352 -130 363 -130 7 0 20 -4
30 -9 20 -12 166 -58 202 -65 14 -3 41 -10 60 -17 31 -11 51 -17 65 -19 3 -1
19 -6 37 -11 49 -15 71 -21 90 -23 10 -1 21 -5 24 -9 4 -4 18 -7 31 -7 14 0
32 -4 41 -9 9 -5 35 -11 57 -15 22 -3 56 -10 75 -16 19 -6 51 -13 70 -15 41
-6 74 -13 78 -15 4 -4 59 -15 136 -26 21 -3 47 -8 57 -10 11 -2 28 -6 40 -9
12 -2 42 -7 68 -10 25 -3 60 -8 76 -11 17 -2 48 -7 70 -10 22 -2 51 -6 65 -8
14 -2 54 -7 90 -10 36 -4 81 -9 102 -12 20 -2 71 -7 115 -9 43 -2 78 -5 78 -6
0 -6 280 -13 505 -13 293 0 536 10 675 29 22 2 72 7 110 10 39 3 81 8 95 10
14 3 43 7 65 11 22 3 83 12 135 20 52 8 111 17 130 20 19 3 67 12 105 20 39 8
81 17 95 19 14 2 57 11 95 20 39 9 81 18 95 20 14 2 52 12 85 21 33 9 67 18
75 19 8 2 16 4 18 5 3 3 10 5 57 15 22 5 42 10 45 10 3 1 25 8 50 15 25 7 48
14 53 16 4 1 9 3 12 4 3 1 8 3 13 4 46 13 102 29 122 36 14 5 93 32 175 60 83
29 164 58 182 66 17 8 38 14 46 14 9 0 18 4 21 9 3 5 18 12 33 16 16 3 42 13
58 20 17 8 59 26 95 41 91 37 134 57 308 140 84 40 155 73 157 74 3 0 22 10
42 22 21 11 71 39 112 61 41 22 124 69 185 105 61 36 120 70 131 76 11 6 34
21 52 34 17 12 36 22 42 22 6 0 11 5 11 10 0 6 12 2 28 -8 57 -40 162 -102
172 -102 5 0 10 -4 10 -10 0 -5 4 -10 10 -10 5 0 38 -17 72 -38 35 -21 117
-67 183 -101 66 -35 126 -68 133 -73 6 -6 12 -7 12 -4 0 4 12 -1 28 -12 15
-10 39 -22 55 -26 15 -3 27 -11 27 -16 0 -6 6 -10 13 -10 7 0 35 -11 63 -24
75 -36 148 -70 154 -71 3 -1 23 -9 45 -19 22 -10 69 -29 105 -43 36 -14 69
-30 75 -34 5 -5 14 -9 21 -9 6 0 29 -8 50 -17 22 -9 46 -18 54 -19 8 -2 23 -7
35 -13 39 -20 451 -155 500 -165 11 -2 43 -11 70 -19 67 -21 243 -66 277 -71
15 -3 31 -7 36 -10 4 -2 26 -7 47 -10 22 -3 55 -9 73 -15 18 -5 35 -10 37 -10
3 0 18 -2 33 -5 15 -4 41 -8 57 -10 17 -2 41 -7 55 -10 40 -9 82 -17 120 -21
19 -3 46 -7 60 -9 14 -3 45 -8 70 -11 25 -4 56 -8 70 -10 113 -19 288 -36 545
-53 174 -11 920 -5 920 8 0 0 34 3 75 5 41 2 89 6 105 9 17 2 59 7 95 11 36 4
76 8 90 10 14 2 50 7 80 10 30 3 62 8 70 10 8 3 35 7 60 10 25 3 72 10 105 16
33 6 71 13 85 15 14 3 36 7 50 9 14 3 39 8 55 11 17 2 38 7 48 10 10 3 31 7
48 9 17 3 39 7 49 10 10 3 28 8 39 10 46 10 58 13 96 23 22 6 51 13 65 16 14
3 52 13 85 22 33 9 65 17 70 18 18 4 130 37 145 43 8 3 20 7 25 8 6 2 30 8 55
16 25 7 50 13 55 15 6 1 21 6 35 12 14 5 28 10 32 11 4 1 27 9 50 17 24 9 48
17 53 18 6 2 21 8 35 13 14 6 45 17 70 26 54 18 259 98 315 123 22 10 42 18
45 19 3 0 20 9 37 18 18 10 35 17 38 17 27 0 506 243 654 332 34 21 67 38 72
38 5 0 9 5 9 12 0 6 3 8 7 5 3 -4 14 0 24 9 18 16 64 44 109 66 14 7 31 19 38
26 8 7 28 20 45 28 16 9 35 20 41 25 6 5 74 53 151 107 180 125 309 221 313
233 2 5 10 9 17 9 7 0 15 3 17 8 2 4 23 23 48 42 25 19 50 39 56 45 6 5 32 28
59 50 27 22 74 62 104 90 31 27 67 59 80 70 37 32 158 144 222 208 l59 58
-1964 1962 c-1674 1672 -2078 2073 -2159 2142 -7 6 -41 35 -77 65 -36 30 -67
57 -70 60 -3 3 -30 25 -60 50 -30 25 -57 47 -60 50 -3 3 -25 21 -50 40 -25 19
-52 40 -60 47 -14 11 -46 35 -195 144 -169 123 -637 419 -664 419 -5 0 -14 7
-21 15 -7 8 -16 12 -21 9 -5 -3 -9 -2 -9 3 0 4 -10 13 -23 19 -12 6 -94 47
-182 92 -88 44 -191 95 -230 112 -38 18 -93 43 -122 56 -28 13 -54 24 -57 24
-3 0 -30 11 -60 25 -30 14 -57 25 -60 25 -3 0 -30 11 -60 25 -30 14 -60 25
-66 25 -6 0 -30 9 -52 20 -23 11 -49 20 -58 20 -8 0 -24 6 -35 13 -11 8 -35
17 -53 20 -19 4 -48 13 -65 21 -34 16 -315 102 -429 132 -5 1 -10 3 -13 4 -3
1 -13 3 -22 5 -10 1 -25 4 -33 8 -20 8 -87 25 -129 32 -19 3 -37 8 -41 10 -4
2 -22 7 -41 10 -19 3 -50 10 -69 15 -19 5 -51 12 -70 15 -19 3 -43 8 -53 11
-11 3 -29 7 -40 9 -12 1 -49 7 -82 13 -33 6 -76 13 -95 16 -19 3 -44 7 -55 10
-11 2 -40 7 -65 10 -25 3 -56 8 -70 10 -81 14 -357 41 -507 50 -34 2 -66 7
-72 11 -6 3 -11 2 -11 -4 0 -7 -8 -7 -24 -2 -22 9 -692 7 -806 -2 -85 -7 -210
-18 -260 -23 -25 -2 -66 -7 -91 -9 -39 -4 -104 -13 -284 -40 -11 -2 -45 -6
-75 -10 -30 -4 -59 -9 -63 -12 -4 -2 -22 -6 -40 -9 -73 -9 -96 -14 -187 -34
-52 -12 -104 -23 -115 -26 -11 -2 -32 -6 -47 -10 -15 -3 -30 -5 -33 -5 -2 0
-34 -9 -70 -19 -36 -10 -65 -16 -65 -13 0 3 -6 0 -13 -6 -8 -6 -31 -13 -53
-17 -21 -3 -48 -11 -59 -17 -11 -6 -21 -10 -22 -9 -2 1 -4 2 -5 1 -2 0 -10 -2
-18 -4 -8 -1 -49 -13 -90 -26 -41 -12 -77 -23 -80 -24 -13 -3 -87 -27 -105
-35 -11 -5 -32 -11 -47 -14 -15 -4 -40 -11 -55 -17 -15 -6 -30 -11 -33 -11 -3
0 -22 -9 -42 -19 -21 -11 -38 -17 -38 -14 0 3 -14 -2 -30 -10 -17 -9 -35 -13
-40 -10 -6 3 -10 1 -10 -4 0 -6 -9 -11 -20 -11 -11 0 -20 -5 -20 -11 0 -5 -4
-8 -8 -5 -5 3 -19 -1 -33 -7 -13 -7 -60 -27 -104 -44 -44 -17 -133 -56 -198
-87 -64 -30 -117 -52 -117 -48 0 4 -4 3 -8 -3 -6 -9 -169 -92 -190 -97 -4 -1
-29 -14 -55 -30 -26 -15 -50 -28 -53 -28 -3 0 -19 -9 -35 -21 -16 -11 -29 -17
-29 -13 0 4 -8 0 -17 -8 -10 -8 -65 -41 -123 -73 -58 -32 -121 -70 -140 -83
-19 -13 -45 -28 -57 -33 -13 -5 -23 -13 -23 -19 0 -6 -4 -9 -9 -5 -6 3 -16 -1
-23 -8 -11 -12 -16 -12 -38 3 -14 10 -47 31 -75 48 -27 17 -55 35 -61 39 -5 5
-23 15 -40 24 -73 38 -119 64 -124 70 -12 14 -365 195 -505 259 -137 63 -154
70 -164 70 -6 0 -11 5 -11 12 0 6 -2 9 -6 6 -4 -5 -111 36 -189 72 -40 18
-267 100 -289 104 -13 2 -32 9 -42 15 -11 6 -95 33 -189 61 -93 28 -183 54
-200 60 -16 5 -41 11 -55 14 -14 3 -50 12 -80 20 -30 8 -66 17 -80 20 -14 3
-42 10 -62 15 -21 5 -38 7 -38 4 0 -3 -7 0 -15 7 -8 7 -15 10 -15 7 0 -3 -15
-1 -32 4 -18 5 -49 12 -68 15 -19 3 -51 9 -70 14 -19 5 -53 11 -74 15 -21 3
-48 8 -60 11 -12 2 -37 7 -56 9 -19 2 -64 9 -100 15 -36 5 -90 13 -120 16 -56
7 -85 11 -85 14 0 0 -25 3 -55 5 -30 2 -68 6 -85 9 -16 3 -70 8 -120 12 -49 3
-117 8 -150 11 -83 7 -843 12 -849 6z"/>
</g>
</svg>
